# xmcd
#
# Track frame offsets: 
#        150
#        21535
#        66263
#        86083
#        113640
#        141082
#        162261
#        190112
#        209043
#        236457
#        265271
#
# Disc length: 3635 seconds
#
# Revision: 1
# Processed by: cddbd v1.5.2PL0 Copyright (c) Steve Scherf et al.
# Submitted via: ExactAudioCopy v0.99pb3
#
DISCID=9f0e310b
DTITLE=Various Artist - You've Been Jazzed 3 - Chilled Edition - Disk
DTITLE=2 of 2
DYEAR=2007
DGENRE=Jazz
TTITLE0=Jurr and Roussia - 7 Diamants
TTITLE1=Lounge Conjunction - Composite Five
TTITLE2=Marshall Curtley - Thats what you are
TTITLE3=SW - Sweet Lullabies
TTITLE4=Water - In my mind
TTITLE5=Monte La Rue - Chateau Blue
TTITLE6=Water feat. Fay Lovsky - Just one day
TTITLE7=Monte La Rue - Gloom
TTITLE8=Tevlon - Mi Propria Vida
TTITLE9=Water feat. Stefania D Piero - A Rà
TTITLE10=Monte La Rue - Enotera
EXTD=YEAR: 2007
EXTT0=
EXTT1=
EXTT2=
EXTT3=
EXTT4=
EXTT5=
EXTT6=
EXTT7=
EXTT8=
EXTT9=
EXTT10=
PLAYORDER=
